<?xml version="1.0" encoding="UTF-8"?>
<svg version="1.1" viewBox="0 0 2048 682" width="330" height="110" xmlns="http://www.w3.org/2000/svg">
<path transform="translate(345,7)" d="m0 0 7 1 4 5 3 6 2 8 1 10 1 162 1 84 2 44 12-8 12-9 17-12 46-32 19-13 18-13 13-9 21-16 16-13 17-13 14-12 7-4h6l4 4 3 10-1 18-6 17-6 10-7 11-11 12-9 8-16 12-18 13-38 28-12 9-19 14-16 12-38 28-12 9-8 8-1 2v11l4 26 4 15 5 4 5 10 1 6 1 35 3 17 2 17 1 12-5 18-12 25-5 4-4 3h-3l-4-7-7-28-11-57-10-63-3-21-14 7-39 26-31 21-10 9-6 14-15 47-9 30-5 19-8 24-4 6-1 1h-6l-3-3-4-1-4-10-4-24v-8l5-19 6-15 7-14 3-13-7 7-11 7-16 12-18 14-14 11-10 8-14 12-12 12-7 8-21 21-15 10-15 6-10-2-5-5-5-13 4-17 4-15 8-18 6-10 10-9 14-10 18-14 16-12 21-16 16-12 21-16 12-9 19-14 18-14 17-12 6-5 7-19 15-47 12-36 21-64 14-47 10-37 9-39 15-69 10-42 5-14zm-20 176-2 12-3 29-6 21-7 26-7 22-18 58-7 24-4 17-2 3 5-2 18-12 34-24 3-3 1-3v-19l-1-69-1-36-2-44z" fill="#FCFDFD"/>
<path transform="translate(1687,359)" d="m0 0 5 1 2 6 5 23 1 61 3 68 3 24 3 28 7 32 6 18 5 10 9 2 5 2 1 2-3 8 1 4 2 7-3 8-7 9-5 3-7 1-11-4-7-8-8-14-6-15-7-25-5-27-3-25-3-26-4-60-1-6-4 22-2 13-8 33-4 15-7 18-4 13-8 17-8 12h-2v2l-5 1-2-2-2-5-5-3-4-5-3-11v-32l3-10 1-72 1-20 3-26 2-17 2-12 6-9 7-6 7-4h6l3 6 2 17-1 38-3 23-1 8 9-31 10-30 7-18 7-14 7-9z" fill="#FCFDFD"/>
<path transform="translate(886,266)" d="m0 0 7 1 5 10 1 13-6 37-6 26-8 30-9 30-8 27-4 15v11l4-4 13-21 9-12 9-11 12-14 10-8 5-3 5-1 3 1 2 4 1 16v13l-3 12-8 35-3 21-2 28v25l4 12 6 6 9-1 11-6h5l2 10 1 7 1 1v8l-8 11-13 8-18 6h-8l-12-6-7-10-5-13-3-13-1-8v-26l2-24 7-36v-3l-12 29-9 20-1-3 3-8h-2l-2 6-11 24-20 40-6 10-8 10-9 8-4 2-5-1-3-5-6-4-3-5 1-10 6-31 10-36 17-52 13-38 18-57 14-48 11-43 4-10z" fill="#40A3D8"/>
<path transform="translate(345,7)" d="m0 0 7 1 4 5 3 6 2 8 1 10 1 162 1 84 2 46-7 6-13 8-5 6-12 8-4 1 4-7v-19l-1-69-1-36-2-41-4 38-6 21-7 26-7 22-18 58-7 24-4 17-5 6-4 1v2l-11 8-28 22-8 6-12 7-2-1 16-12 5-4 7-19 15-47 12-36 21-64 14-47 10-37 9-39 15-69 10-42 5-14z" fill="#40A3D7"/>
<path transform="translate(590,187)" d="m0 0h1l-1 18-6 17-6 10-7 11-11 12-9 8-16 12-18 13-38 28-12 9-19 14-16 12-38 28-12 9-8 8-1 2v11l4 26 4 15 5 4 5 10 1 6 1 35 3 17 2 17 1 12-5 18-12 25-5 4-4 3h-3l-4-7-7-28-11-57-10-63-3-21-14 7-39 26-31 21-10 9-6 14-15 47-9 30-5 19-8 24-4 6-1 1h-6l-3-3-4-1-4-10-4-24v-8l5-19 6-15 7-14 3-13-7 7-11 7-16 12-18 14-14 11-10 8-14 12-12 12-7 8-21 21-15 10-15 6-10-2-5-5 1-2 4 2 19-9 14-9 12-11 17-17 7-8 14-14 11-9 16-13 14-11 15-12 13-10 13-11 11-9 8-7 10-8 14-10 24-13 9-6 17-12 13-9 37-25 9-8 18-13 10-7 18-13 12-8 18-13 16-13 14-10 18-13 14-10 23-16 13-10 14-10 18-13 5-4h2v-2l5-4 9-12 11-17 8-15 3-11z" fill="#3FA2D6"/>
<path transform="translate(1909,182)" d="m0 0h9l9 3 6 5 4 8 2 10v12l-3 5-4 5-6 2-9-3h-13l-11 6-3 3h-2v2l-12 12-8 12-12 19-6 10-8 16-10 21-10 25-8 22-8 27-6 21v9l6-4 7-8 10-13 13-14 14-9 5-2h9l4 4 2 12v8l-5 12-9 10-13 8-9 8-1 2h-2l-2 4-16 17-7 7-7 8-12 14-3 7-2 9-1 10v20l2 21v17l-3 9-5 9-5 4h-5l-4-6-6-5-4-9-1-4-2-35-2-1-2 4-3 3-2 3-1-1v-9l-2-1v-2l-7-1-4-10v-9l3-8 7-12 12-14 7-7 7-28 12-43 11-35 13-33 11-26 14-30 12-22 12-21 14-21 8-10 11-12 8-7 10-6zm-112 254-1 2 3-1z" fill="#FBFDFD"/>
<path transform="translate(728,261)" d="m0 0h8l3 2 1 13v14l-3 29-4 33-5 56-1 15 10-7 10-9 12-11 4-4h2l2-4 7-7 7-8 10-5h12l4 3 1 6 2 14-5 8-8 8-11 9-11 10-11 9-13 11-14 11-9 8-4 8-4 28-2 19-1 19v36l-1 21-4 6-7 6-7 3h-9l-2-2v-6l-7-2-3-6v-19l3-41 1-21v-16l-3 4-4 7 2 4-1 5-6 5-15 7-9 3-12-2-8-10-3-3-1-5 6-12 11-12 13-10 17-12 17-11 2-7 6-60 7-63 4-27 5-21 5-8 9-7z" fill="#40A3D8"/>
<path transform="translate(618,378)" d="m0 0 5 1 2 3 3 16v11l-2 31-8 71-4 28-1 22 2 15 5 12 2 17-3 9-9 8-9 4-6-1-2-5h-2l-6-11-4-15-2-13-1-24-4 8-6 9-9 10-12 12-12 9-2 1h-6l-3-5-7-3-10-13-6-12-4-14-1-8v-32l3-28 7-46 6-32 4-8 7-6 5-2 8 1 5 6 3 13v11l-5 29-4 21-3 22v28l4 21 1 5 6-4 9-12 10-19 9-25 14-46 6-23 4-20 2-12 5-8 12-6z" fill="#40A3D7"/>
<path transform="translate(1977,360)" d="m0 0h14l5 4v5l-4 6 4 2 10 8 9 10 8 13 7 16 4 16 1 22-3 37-3 24-5 14-8 15-12 17-9 10-7 8-3 1v2l-13 10-16 8-7 2h-14l-16-8-13-12-8-13-4-11-1-4v-50l2-16 4-17 4-15 8-24 8-18 9-15 10-14 11-12 10-10 13-9zm-4 46-9 5-6 5-7 9-10 17-8 20-4 15-3 12-3 29v21l3 10 6 9 8 6 8 3 9 1 12-4 9-7 9-12 8-14 6-14 5-17 4-17 1-8v-18l-2-12-6-18-8-10-8-7-9-4z" fill="#FCFDFD"/>
<path transform="translate(1556,254)" d="m0 0 5 1 4 5 4 7-1 9-3 14v2h-2v7l-5 21-10 34-8 25-10 29-11 29-8 24-9 34-3 19-2 28 1 16 2 13-1 12-8 14-9 10-4 2h-8l-10-6-8-9-5-10-1-4v-34l6-32 12-42 16-51 19-56 13-37 13-38 7-17 9-10z" fill="#FAFCFD"/>
<path transform="translate(1049,360)" d="m0 0 9 1 2 3 1 7-2 4 14 12 10 12 9 16 6 18 2 11v35l-4 34-3 16-4 11-7 11-10 14-12 14-2 3h-2l-2 4-9 9-10 7-15 7-6 2h-12l-7-3-10-6-6-5-9-11-8-15-2-10-1-19 1-28 4-26 7-28 6-18 9-20 11-18 10-13 13-14 14-11 10-5zm-10 46-11 7-9 10-8 13-8 18-8 25-4 20-2 9-1 22v9l4 12 6 8 9 7 10 3h8l10-4 11-9 9-12 9-17 7-19 4-16 1-7v-38l-4-15-5-9-5-5-10-8-6-4z" fill="#40A3D8"/>
<path transform="translate(1401,371)" d="m0 0h12l2 3 2 12v10l-7 12-7 7-8 4h-19l-10 3-12 7-6 7-1 6 8 9 14 10 25 13 16 8 11 7 10 9 6 7 5 13 1 6v13l-2 11-5 9-9 11-10 9-15 9-25 13-32 13-17 6-4 1h-8l-5-3-2-5-6-4-2-5 4-6 9-10 8-7 13-10 21-13 10-6 5 1v7l-12 13-1 2 16-7 14-7 11-9 6-9 1-3v-8l-5-9-5-4-10-5-21-8-19-9-15-10-10-9-5-6-7-14-2-11v-9l4-10 7-9 8-8 12-9 26-16 16-8 15-4z" fill="#40A3D8"/>
<path transform="translate(1143,366)" d="m0 0h12l5 5 4 18v37l9-10 8-10 14-14 15-10 16-7 14-1 3 1 2 6v14l-3 6-10 6-11 6-8 7-11 13-11 18-8 16-8 20-6 10-6 18-6 27-4 15-6 23-4 11-9 10-6 5-2 1h-9l-10-10-3-4v-9l10-68 9-62 2-20 1-17v-32l6-9 9-9z" fill="#40A3D8"/>
<path transform="translate(322,416)" d="m0 0 2 1-10 8-15 10-20 14-27 18-14 9-3 4-11 33-15 49-11 36-6 16-6 9-2 2h-4l-4-10-4-24v-8l5-19 6-15 7-14 3-13-7 7-11 7-16 12-18 14-14 11-10 8-14 12-12 12-7 8-21 21-15 10-15 6-10-2-5-5 1-2 4 2 19-9 14-9 12-11 17-17 7-8 14-14 11-9 16-13 14-11 15-12 13-10 13-11 11-9 8-7 10-8 14-10 24-13 9-6 17-12 13-9z" fill="#3FA2D7"/>
<path transform="translate(590,187)" d="m0 0h1l-1 18-6 17-6 10-7 11-11 12-9 8-16 12-18 13-38 28-12 9-19 14-16 12-38 28-12 9-8 8-3 6h-1v-19l13-10 10-7 5-5 18-13 16-13 14-10 18-13 14-10 23-16 13-10 14-10 18-13 5-4h2v-2l5-4 9-12 11-17 8-15 3-11z" fill="#3A4B58"/>
<path transform="translate(1257,258)" d="m0 0 5 3 12 17 10 15 1 3v15l-5 14-11 23-7 9h-7l-5-5v-2l-4-2-4-5-2-6-1-14 5-26 8-29 3-8z" fill="#40A3D8"/>
<path transform="translate(1625,86)" d="m0 0h7l6 3 6 8 2 6v18l-2 14-3 10-6 8-9 8-7 4h-7l-6-5-5-8v-33l5-14 8-12 6-5z" fill="#FDFEFE"/>
<path transform="translate(192,506)" d="m0 0h4l-2 10-2 7-9 8-11 7-13 10-18 14-14 11-10 8-14 12-12 12-7 8-21 21-15 10-15 6-10-2-5-5 1-2 4 2 19-9 14-9 12-11 17-17 7-8 14-14 11-9 16-13 14-11 15-12 13-10 13-11z" fill="#3A4751"/>
<path transform="translate(1936,198)" d="m0 0 2 4 1 6v12l-3 5-4 5-6 2-9-3h-13l-11 6-3 3h-2v2l-12 12-8 12-12 19-6 10-8 16-10 21-10 25-8 22-8 27-6 21v10l-3 3-6 7-4 2 1-7 7-28 12-36 7-20 11-28 13-29 10-20 13-22 12-17 2-3h2l2-4 11-10 10-6 8-1 9 5 8 1 6-4 4-8z" fill="#3B505E"/>
<path transform="translate(332,411)" d="m0 0 2 1v13l-13 7-39 26-31 21-10 9-6 14-15 47-9 30-5 19-8 24-4 6-1 1h-6l-3-3 2-4 6-10 11-33 15-49 14-45 4-8 8-6 19-12 16-11 20-14 16-11 11-8z" fill="#3A4853"/>
<path transform="translate(1242,390)" d="m0 0 2 1v7l-5 5-17 9-10 9-10 12-11 18-8 16-8 20-6 10-6 18-6 27-4 15-6 23-4 11-9 10-6 5-2 1h-9l-5-5v-3l14-6 9-7 4-9 7-25 10-37 10-30 15-34 10-19 10-14 9-10 10-8 21-9z" fill="#3A444C"/>
<path transform="translate(1567,273)" d="m0 0 1 3-3 14v2h-2v7l-5 21-10 34-8 25-10 29-11 29-8 24-9 34-3 19-2 28 1 16 2 13-1 12-8 14-9 10-4 2h-8l-10-6-4-4v-2l7 2h9l8-4 9-14 8-13-3-14-1-14v-26l3-19 9-36 12-36 21-60 15-48 9-29z" fill="#3A4650"/>
<path transform="translate(806,382)" d="m0 0h2l2 9-5 8-8 8-11 9-11 10-11 9-13 11-14 11-9 8-4 8-4 28-2 19-1 19v36l-1 21-4 6-7 6-7 3h-9l-2-2v-6h-2v-2l11-3 8-4 5-4 3-5 2-60 2-14 3-50 2-6 12-10 12-9 32-26 12-11 10-9z" fill="#3A4650"/>
<path transform="translate(1868,396)" d="m0 0 2 4v8l-5 12-9 10-13 8-9 8-1 2h-2l-2 4-16 17-7 7-7 8-12 14-3 7-2 9-1 10v20l2 21v17l-3 9-5 9-5 4h-5l-4-6-3-3 11-3 7-10 3-7v-18l-2-19v-27l2-17 3-7 7-8 15-15 7-8 9-9 7-8 4-5 4-4h2l1-3 10-5 5-2 6-7 7-11z" fill="#3A4A56"/>
<path transform="translate(2032,440)" d="m0 0h2l1 22-3 37-3 24-5 14-8 15-12 17-9 10-7 8-3 1v2l-13 10-16 8-7 2h-14l-16-8-13-12-2-5 5 5 10 7 6 2h21l10-3 12-7 10-8 12-12 9-11 12-17 9-15 6-18 4-31 1-4z" fill="#3A4E5B"/>
<path transform="translate(1440,518)" d="m0 0h2l1 6v13l-2 11-5 9-9 11-10 9-15 9-25 13-32 13-17 6-4 1h-8l-5-3v-5l36-12 32-13 21-11 14-10 14-13 6-9 4-8 1-4z" fill="#3A4752"/>
<path transform="translate(1097,437)" d="m0 0 2 1 1 6v35l-4 34-3 16-4 11-7 11-10 14-12 14-2 3h-2l-2 4-9 9-10 7-15 7-6 2h-12l-7-3-10-6-6-5v-2l5 2 9 3h15l12-3 13-7 11-9 5-4 9-11 12-15 10-15 8-16 6-19 3-23z" fill="#3A4B57"/>
<path transform="translate(890,452)" d="m0 0h2v7l-7 18-10 24-8 18-1-3 3-8h-2l-2 6-11 24-20 40-6 10-8 10-9 8-4 2-5-1-3-5 1-3 9-7 8-8 8-11 9-16 15-29 17-34 12-22 9-15z" fill="#3A424A"/>
<path transform="translate(323,189)" d="m0 0h1l-1 17-2 18-6 21-7 26-7 22-18 58-7 24-4 17-5 6-4 1v-7l9-29 14-45 13-42 12-43 11-42z" fill="#3B5160"/>
<path transform="translate(1968,395)" d="m0 0 6 1 7 7 12 8 6 7 2 6-5-5-9-8-9-4-7 1-10 6-9 11-10 17-8 20-4 15-3 12-3 29v21l1 8-2-2-3-14v-29l3-22 7-28 8-21 6-12 8-11 10-9z" fill="#3B5363"/>
<path transform="translate(1034,396)" d="m0 0 6 1 7 6 13 10 5 7-4-2-12-9-3-2h-7l-11 7-8 9-8 13-8 18-8 25-4 20-2 9-1 22-1 8h-1l-1-5v-36l6-30 7-24 6-14 9-15 11-12z" fill="#3A454E"/>
<path transform="translate(1664,461)" d="m0 0h1l-1 11-3 16-2 13-8 33-4 15-7 18-4 13-8 17-8 12h-2v2l-5 1-2-2-2-5-5-3-1-2h9l3-1 11-19 9-20 10-30 12-45z" fill="#3A424B"/>
<path transform="translate(896,288)" d="m0 0h1v8l-6 32-6 23-5 17-4 22-1 7-9 29-3 10-3 7-5 16-4 13 1 4-6 11-3-1 7-31 17-58 17-62 11-42z" fill="#3A4149"/>
<path transform="translate(578,543)" d="m0 0h1v8l-2 9-8 13-10 11-12 12-12 9-2 1h-6l-3-5-7-3-5-7 5 2 2 1h8l8-4 9-8 7-8 7-7 9-11 6-8h2l2-4z" fill="#3A4249"/>
<path transform="translate(1414,383)" d="m0 0 3 3v10l-7 12-7 7-8 4h-19l-10 3-12 7-6 7-1 2-4-2-2-4v-6l7-7 12-7 13-5 4 1 4 3h7l10-5 5-5 6-8z" fill="#3A4853"/>
<path transform="translate(359,24)" d="m0 0 2 3 1 10 1 162v96h-1l-2-37-1-51z" fill="#3A4B57"/>
<path transform="translate(950,573)" d="m0 0h2l2 3v8l-8 11-13 8-18 6h-8l-12-6-2-4 17-1 14-4 11-6 10-9z" fill="#3A4751"/>
<path transform="translate(1561,299)" d="m0 0 1 4-4 17-10 34-8 25-10 29-11 29-8 24-9 34-3 19-2 28h-1v-23l2-19 5-23 10-33 11-32 5-10 14-42 3-14 2-6 8-27 4-13z" fill="#40A3D8"/>
<path transform="translate(716,520)" d="m0 0h1v55l-1 21-4 6-7 6-7 3h-9l-2-2v-6h-2v-2l11-3 8-4 5-4 3-5 2-60z" fill="#3A444C"/>
<path transform="translate(1644,100)" d="m0 0 2 3v18l-2 14-3 10-6 8-9 8-7 4h-7l-6-5 1-2 17-8 8-8 7-12 3-11z" fill="#3A4A55"/>
<path transform="translate(1497,558)" d="m0 0h1l2 13-1 12-8 14-9 10-4 2h-8l-10-6-4-4v-2l7 2h9l8-4 9-14 8-13-2-9z" fill="#3A4E5C"/>
<path transform="translate(626,397)" d="m0 0 2 1v11l-2 31-8 71-4 28-2 20h-1v-22l4-42 3-25 2-22 4-33z" fill="#3B5C71"/>
<path transform="translate(929,416)" d="m0 0h1v16l-4 14-7 32-3 27-1 17-2 16h-1l-1-14v-11l3-34 4-25 6-22z" fill="#3A454E"/>
<path transform="translate(396,528)" d="m0 0h1l2 23-5 18-12 25-5 4-4 3h-3v-3h2l2-6 11-25 9-22 1-4z" fill="#3B4F5D"/>
<path transform="translate(1696,379)" d="m0 0 2 4 1 6 1 61 3 68 3 24 3 28 7 32 1 7-2-3-5-19-4-18-4-38-2-12-2-33-1-35z" fill="#3B5769"/>
<path transform="translate(673,507)" d="m0 0 1 4 2 2-1 5-6 5-15 7-9 3-12-2-3-3v-2l12-3 22-10z" fill="#3A4B57"/>
<path transform="translate(738,279)" d="m0 0h1l-1 33-5 40-5 56-1 3-1 12h-1v-26l2-29 4-41z" fill="#3B5769"/>
<path transform="translate(1781,509)" d="m0 0h1l-1 15v20l2 21v17l-3 9-5 9-5 4h-5l-4-6-3-3 11-3 7-10 3-7v-18l-2-19v-27h1l1 12z" fill="#3B5B6E"/>
<path transform="translate(1323,477)" d="m0 0 5 2 14 8 28 12 16 7 11 7 7 8 1 3h-2l-5-6-12-6-21-8-19-9-15-10-8-7z" fill="#3A4C58"/>
<path transform="translate(618,597)" d="m0 0h3l1 8-3 9-9 8-9 4-6-1-2-5h-2l1-3 11-6 10-7z" fill="#3A454F"/>
<path transform="translate(1737,647)" d="m0 0 3 1 2 7-3 8-7 9-5 3-7 1-11-4-7-8 1-2 6 4 4 1 5-1 2 1v-2l9-4 6-9z" fill="#3A4B58"/>
<path transform="translate(1283,302)" d="m0 0 2 1v8l-5 14-11 23-7 9h-7l-5-5-1-3h13l1-5 8-14 7-14z" fill="#3B4E5C"/>
<path transform="translate(1190,449)" d="m0 0 1 2-8 16-8 20-6 10-6 18-6 27-4 15-5 19h-1l1-13 5-23 9-31 10-26 8-17 9-16z" fill="#40A3D8"/>
<path transform="translate(541,419)" d="m0 0h2l-1 10-4 26-2 17-5 33-1 16h-1l-1-5v-18l5-40 3-14z" fill="#3A4C59"/>
<path transform="translate(1638,393)" d="m0 0h1l1 8-1 38-3 23-3 18-3 9-1-4 4-36 3-32z" fill="#3B5464"/>
<path transform="translate(1748,529)" d="m0 0 2 4v22h-1l-1-10-2-1-2 4-3 3-2 3-1-1v-9l-2-1v-2l-7-1v-2h9l6-1 2-6z" fill="#3A4955"/>
<path transform="translate(1647,542)" d="m0 0 1 4-8 21-4 13-8 17-8 12h-2v2l-5 1-2-2 1-4 1 4 6-2 2-5 5-9 8-19 10-27z" fill="#40A3D8"/>
<path transform="translate(1696,379)" d="m0 0 2 4 1 6 1 61v19h-1l-2-18z" fill="#3FA2D7"/>
<path transform="translate(322,416)" d="m0 0 2 1-10 8-15 10-20 14-22 15-2-1 6-5 19-13 14-10z" fill="#40A3D8"/>
<path transform="translate(326,177)" d="m0 0h2l1 8v51h-1l-1-9-1-20z" fill="#3A3F46"/>
<path transform="translate(681,485)" d="m0 0h1v12l-3 3-3 5-2-4-2-5-2-1 1-4z" fill="#3A3E45"/>
<path transform="translate(929,426)" d="m0 0h1l-1 10-3 10-7 32-2 16h-1v-12l4-24 3-10 2-13h2z" fill="#40A3D8"/>
<path transform="translate(1161,383)" d="m0 0h2l1 6v32l-2 7h-1z" fill="#3C6983"/>
<path transform="translate(1660,488)" d="m0 0 1 3-9 39-3 12h-1l1-10 2-15 8-28z" fill="#40A3D8"/>
<path transform="translate(1006,444)" d="m0 0 1 3-4 10-7 22-4 20-2 9h-1v-8l6-28 9-25z" fill="#40A3D8"/>
<path transform="translate(589,198)" d="m0 0h1v7l-6 17-6 10-7 11-7 8v-3l7-10 9-16 5-10 3-10z" fill="#40A3D8"/>
<path transform="translate(1097,437)" d="m0 0 2 1 1 6v35l-1 11-2-3z" fill="#3B5566"/>
<path transform="translate(1666,453)" d="m0 0 2 2 1 6v41h-1l-3-44z" fill="#3B5668"/>
<path transform="translate(2032,440)" d="m0 0h2l1 22-1 15-3-2z" fill="#3D718F"/>
<path transform="translate(116,579)" d="m0 0 2 1-15 13-12 12v-3l4-5 1-2h2v-2l14-11z" fill="#40A3D8"/>
<path transform="translate(1800,417)" d="m0 0 1 4-1 4v10l-3 3-2 3h-3l3-10 4-11z" fill="#40A3D8"/>
<path transform="translate(1567,273)" d="m0 0 1 3-3 14v2h-2v7l-4-2 3-11z" fill="#3C637A"/>
<path transform="translate(1698,461)" d="m0 0h1l2 15v14h-2l-1-4z" fill="#3C6D89"/>
<path transform="translate(718,493)" d="m0 0h2l-1 17-1 10h-2l1-23z" fill="#3C6077"/>
<path transform="translate(1560,296)" d="m0 0 1 4-6 19-3 1 3-12 3-10z" fill="#3A4A56"/>
<path transform="translate(274,375)" d="m0 0h1l-1 8-2 9-5 6-2-1 8-18z" fill="#40A3D8"/>
<path transform="translate(1643,131)" d="m0 0 1 4-3 10-6 8-6 6-2-1 7-7 6-10z" fill="#40A3D8"/>
<path transform="translate(929,416)" d="m0 0h1v10l-3 9h-3l2-9z" fill="#3A3E44"/>
<path transform="translate(392,365)" d="m0 0 2 1-9 7-11 8-2-1 8-7z" fill="#40A3D8"/>
<path transform="translate(439,330)" d="m0 0 2 1-11 9-4 3-2-1 13-11z" fill="#40A3D8"/>
<path transform="translate(195,624)" d="m0 0v3l-2 2h-6l-2-3z" fill="#40A3D8"/>
<path transform="translate(1777,593)" d="m0 0 1 2-3 5-5 4h-5v-2l7-3z" fill="#40A3D8"/>
<path transform="translate(1638,393)" d="m0 0h1l1 8v10l-3-3z" fill="#3D799A"/>
<path transform="translate(1631,468)" d="m0 0h1l1 12-3 9-1-4z" fill="#40A3D8"/>
<path transform="translate(1456,597)" d="m0 0 7 2 9 1v1h-14z" fill="#40A3D8"/>
<path transform="translate(1497,558)" d="m0 0h1l2 13-3-1-1-6-1-5z" fill="#3D708E"/>
<path transform="translate(864,521)" d="m0 0" fill="#40A3D8"/>
<path transform="translate(865,519)" d="m0 0" fill="#40A3D8"/>
</svg>
