<?xml version="1.0" encoding="UTF-8"?>
<svg version="1.1" viewBox="0 0 1320 1320" width="330" height="330" xmlns="http://www.w3.org/2000/svg">
<path transform="translate(0)" d="m0 0h1320v1320h-1320z" fill="#FDFDFD"/>
<path transform="translate(1052,323)" d="m0 0h6l5 5 3 5 1 7v13l-4 16-8 16-11 19-3 5h-2l-2 5-11 17-7 10-10 13h-2l-1 3-10 8-16 12-13 9-11 8-10 7-14 10-10 7-15 11-18 13-11 8-13 10-22 16-15 11-16 12-18 13-12 9-18 13-19 14-64 48-17 12-8 6h-2v2l-4 1-1 3-18 13-13 9h-2v2l-7 5h-3v2l-9 6-17 13-15 11-11 7-16 11-10 7-33 22-11 7-3 3-39 26-7 5-5 3-22 14-2 3-7 4-9 7-30 20-6 3-6 5-9 7-13 10-7 8-17 13-18 14-14 11-8 6-11 9-20 16-28 22-11 9-10 8-11 9-8 7-11 11-7 8-4 5h-2l-2 4-10 10-7 8-5 6-8 7-13 13-14 11-13 10-11 7-36 16-6-1-4-8-2-10v-11l4-23 8-26 8-21 8-16 7-12 8-10 19-14 17-13 19-14 13-10 21-16 19-14 18-14 19-14 17-13 36-27 13-10 20-15 13-10 20-15 13-10 19-14 18-14 19-14 11-7 6-3 12-9 10-7 12-9 5-4h3v-2l5-3 5-4h2l2-4 14-10 23-15 16-11 17-12 48-33 4-4h2v-2l17-9 9-7 7-4 5-4 15-10 13-9 5-5 13-11 19-14 17-12 20-14 18-13 16-11 17-12 16-11 23-16 16-11 23-16 16-11 23-16 16-11 18-13 14-11 18-14 12-10 9-7 32-26 25-20 17-13z" fill="#010101"/>
<path transform="translate(618,16)" d="m0 0 9 2 8 7 6 8 2 11 1 13 1 43 1 192 1 93 2 84 1 72 3 69 1 6-5 6-11 7-10 7-12 8-6 5-5 3-14 9-8 4h-2v2l-10 8-12 8-32 22-14 10-19 13-33 22-5 4-4 4-6 5h-3v2l-5 3-33 24-7 5-2-1 4-15 12-36 20-62 14-43 17-54 10-30 14-43 17-54 11-38 14-50 18-71 10-45 18-88 19-85 6-25 7-20 8-18z" fill="#49ADE0"/>
<path transform="translate(1130,380)" d="m0 0 7 1 6 5 4 9 1 4v17l-14 41-17 54-24 78-12 36-13 37-15 42-16 45-12 36-11 37-11 42-7 33-4 26-1 8v52l4 37 3 16 1 7-8 13-12 20-10 16-7 9-8 7-8 3h-15l-11-4-6-4-5-5-6-8-5-13-3-15-2-23 1-8 1-21 5-38 7-34 12-46 13-44 11-37 10-31 21-64 14-42 15-43 17-48 15-42 20-61 17-46 6-13 7-10 13-13 14-10 15-7z" fill="#020202"/>
<path transform="translate(1066,334)" d="m0 0 2 4 2 5v25l-2 7-5 12-11 19-11 16-14 21-10 13-12 12-19 14-18 13-11 8-17 12-13 10-14 10-18 13-21 16-17 12-19 14-34 25-12 9-11 8-19 14-16 12-21 16-14 10-20 15-18 13-9 7v17l5 34 11 60 2 10 5 2 8 6 6 9 2 8 1 26 1 51 2 17 6 27 1 6v14l-4 15-10 26-10 25-8 19-6 11-6 9-4 2-4-1-4-9-10-43-11-53-14-79-9-55-11-74-4-29-2-2-11 9-17 11-22 15-15 10-35 24-36 24-19 13-10 7-11 7-4 3-9 27-7 23-3 9-10 33-11 33-5 18-4 13-3 9-5 18-7 23-5 17-6 22-9 16-5 5-5 4-6 1-6-4-4-15-6-33-1-6v-25l5-20 10-30 4-9 4-4 7-15 6-19 7-31 2-10-11 9-13 11-14 11-16 13-17 13-13 11-13 10-16 13-13 10-14 11-16 13-10 8-10 9-4 4h-2l-2 4-16 16-7 8-12 13-15 16-9 9-11 9-14 12-19 12-8 4-13 5-11 5-5 1-4-4-2-5h5l11-5 25-11 14-9 15-12 11-9 17-17h2l2-4 7-8h2l2-4 10-10 7-8 15-16 9-9 8-6 13-11 8-6 16-13 14-11 11-8 10-9 6-4 10-9 10-7 10-8 30-23 6-5 7-8 20-15 9-7 9-5 31-21 6-5h3l2-4 14-9 9-6 11-7 36-24 5-2 1-3 11-7 33-22 10-7 22-15 12-8 18-14 8-6 6-4h2v-2l7-4 3-1v-2l11-7 16-12 6-4 3-3h2v-2l20-14 16-12 19-14 13-10 16-12 19-14 18-13 19-14 18-13 13-10 18-13 16-12 14-10 5-4 11-8 15-11 14-10 11-8 17-12 10-7 11-8 13-9 13-10 8-6h2l1-3 6-5 9-12 18-27 2-4h2l2-5 15-26 6-15 2-10z" fill="#49ADE0"/>
<path transform="translate(586,323)" d="m0 0 2 1 1 24v218l1 52 1 24v19l-8 4h-2v2l-10 8-12 8-32 22-14 10-19 13-33 22-7 5 2-4 2-3h2l2-4 3-10 3-9 11-34 15-45 8-26 5-14 3-10 9-27 2-8 4-13 7-24 3-8 3-12 5-16 2-8 6-18 3-12 9-31 8-30 6-25 6-27z" fill="#FCFCFC"/>
<path transform="translate(599,754)" d="m0 0 2 1-2 3-1 9-8 7-21 14-22 15-15 10-35 24-36 24-19 13-10 7-11 7-4 3-9 27-7 23-3 9-10 33-11 33-5 18-4 13-3 9-5 18-7 23-5 17-6 22-9 16-5 5-5 4-6 1-6-4-4-15-6-33-1-6v-25l5-20 10-30 4-9 4-4 7-15 6-19 7-31 2-10-11 9-13 11-14 11-16 13-17 13-13 11-13 10-16 13-13 10-14 11-16 13-10 8-10 9-4 4h-2l-2 4-16 16-7 8-12 13-15 16-9 9-11 9-14 12-19 12-8 4-13 5-11 5-5 1-4-4-2-5h5l11-5 25-11 14-9 15-12 11-9 17-17h2l2-4 7-8h2l2-4 10-10 7-8 15-16 9-9 8-6 13-11 8-6 16-13 14-11 11-8 10-9 6-4 10-9 10-7 10-8 30-23 6-5 7-8 20-15 9-7 9-5 31-21 6-5h3l2-4 14-9 9-6 11-7 36-24 5-2 1-3 11-7 33-22 10-7 22-15 12-8 18-14 8-6z" fill="#49ADE0"/>
<path transform="translate(1278,14)" d="m0 0h11l10 5 5 6 4 8 3 14v18l-1 3-1 18-4 16-9 17-11 13-7 8-14 12-10 7-9 4h-12l-5-5-3-10-1-34 2-28 4-13 8-17 11-18 7-9 9-9 9-5z" fill="#020202"/>
<path transform="translate(566,1194)" d="m0 0h21l13 4 10 7 7 7 7 14 3 13v20l-4 18-6 10-8 8-10 6-9 3-5 1h-16l-12-3-11-6-9-9-8-16-2-10v-24l3-12 6-12 7-8 11-7z" fill="#050505"/>
<path transform="translate(1185,1194)" d="m0 0h20l14 4 10 7 7 7 7 14 3 13v19l-3 15-4 9-6 8-9 8-12 5-8 2h-16l-12-3-11-6-9-9-5-8-4-12-1-6v-24l4-14 5-10 7-8 11-7z" fill="#050505"/>
<path transform="translate(168,1154)" d="m0 0 5 2 32 80 11 28 12 30 3 9h-21l-4-9-11-30-2-6-62-1-1 6-12 36-2 4h-21l3-9 7-20 16-42 11-29 16-42 2-5 1-1z" fill="#050505"/>
<path transform="translate(618,16)" d="m0 0 9 2 8 7 6 8 2 11 1 13 1 43 1 192 1 93 2 84 1 72 3 69v5h-2l-1-2-2-24-2-38-1-34-1-57-2-72-1-68-1-250-3-22-1-11-3-6v-2h-2l-6-8h-5l-3 5h-2v5l-2 3-2 9-5 12-1 5-1 4-2 4-1 10-3 9h-2v12l-3 6-1 10-4 16-1 8-2 1-2 15h-2l-1 12-2 7-2 1v12l-4 12v8l-2 8h-2v15l-3 6-2 16-1 3h-2v12l-4 16-1 6-2 4-1 10-1 7v5l-3 9-2 11-3 9-6 19-1 4-2 5-1 3-2 10-2 7-1 5-2 4-2 10-1 4h-2v8l-5 16-5 17h-2v6l-4 11-2 10-3 8-4 13-1 4-7 21-4 13-7 21h-2v5l-6 15-1 8-3 3-2 10-1 4-2 5-2 7-2 5-1 6h-2l-1 7-2 6h-2v7l-1 4-2 1-2 12h-3l-1 9-2 3-2 12-2 1-2 11-3 1v6l-3 9-2 11-4 10-3 10-1 5h-2l-2 16h-2l-1 4-1 3h-2v3l-4 1v2l2 1-4 2 1-7 12-36 20-62 14-43 17-54 10-30 14-43 17-54 11-38 14-50 18-71 10-45 18-88 19-85 6-25 7-20 8-18z" fill="#41A2DA"/>
<path transform="translate(419,1155)" d="m0 0h18l1 51 13-9 8-3 12-1 14 3 9 5 7 8 4 10 1 5v79h-18l-1-71-2-10-4-6-6-4-4-1h-12l-10 4-8 9-3 11-1 68h-18z" fill="#050505"/>
<path transform="translate(1066,334)" d="m0 0 2 4 2 5v25l-2 7-5 12-11 19-11 16-14 21-10 13-12 12-19 14-18 13-11 8-17 12-13 10-14 10-18 13-21 16-17 12-19 14-34 25-12 9-11 8-19 14-16 12-21 16-14 10-20 15-18 13-9 7v17l5 34 11 60 1 7-3-3-5-21-6-31-5-33-3-30v-6l-2-1 17-12 16-12 19-14 13-10 16-12 19-14 18-13 19-14 18-13 13-10 18-13 16-12 14-10 5-4 11-8 15-11 14-10 11-8 17-12 10-7 11-8 13-9 13-10 8-6h2l1-3 6-5 9-12 18-27 2-4h2l2-5 15-26 6-15 2-10z" fill="#4F5051"/>
<path transform="translate(787,1194)" d="m0 0h21l14 4 9 6 6 9 3 9-1 3-2 1-15 1-4-9-5-5-9-3h-13l-9 3-5 6v8l6 5 24 7 24 8 9 8 4 10v11l-4 11-9 10-12 6-10 2h-16l-14-3-9-5-8-9-5-10-1-8 1-1 17-1 3 9 4 6 7 4 8 2h11l10-3 6-5 2-5-1-8-3-3-13-5-29-8-11-6-7-8-3-7v-13l6-12 7-6 8-4z" fill="#060606"/>
<path transform="translate(255,1195)" d="m0 0h10l1 75 3 10 6 5 8 3 12-1 9-4 6-5 4-10 1-13 1-59 1-1h17v108h-16l-1-2 1-12-8 7-10 6-10 3h-14l-12-4-9-6-6-10-2-8v-81z" fill="#060607"/>
<path transform="translate(1027,1193)" d="m0 0h9l9 2 10 5 5 4 5 8 3 12v79h-18l-1-71-2-10-4-6-6-4-5-1h-10l-11 4-5 5-4 7-2 7-1 69h-18v-107l4-1 13 1 1 3-1 9 6-4 8-6 9-4z" fill="#050505"/>
<path transform="translate(570,1209)" d="m0 0h12l9 3 6 4 6 7 5 12 1 6v15l-2 11-6 12-8 7-7 3-5 1h-9l-11-4-8-7-7-14-1-6v-20l4-13 6-8 7-6z" fill="#FDFDFD"/>
<path transform="translate(1190,1209)" d="m0 0h11l11 4 8 7 6 12 2 12v10l-2 13-6 12-7 6-8 4-5 1h-9l-9-3-6-4-6-7-5-12-1-5v-20l3-11 6-9 8-7z" fill="#FDFDFD"/>
<path transform="translate(599,754)" d="m0 0 2 1-2 3-1 9-8 7-21 14-22 15-15 10-35 24-36 24-19 13-10 7-11 7-4 3-9 27-7 23-3 9-10 33-11 33-5 18-4 13-3 9-5 18-7 23-5 17-6 22-9 16-5 5-5 4-6 1-5-3 5-4 7-7 9-15 8-21 13-43 12-41 15-49 13-40 7-22 8-24 2-7-5 2 5-5 11-7 9-6 11-7 36-24 5-2 1-3 11-7 33-22 10-7 22-15 12-8 18-14 8-6z" fill="#4F5051"/>
<path transform="translate(1119,1153)" d="m0 0h20l6 2-1 10-2 6h-14l-8 1-2 7v16l20 1v11l-1 3h-20v93h-18l-1-92-14-1v-14l4-1h7l3-2 1-21 4-9 5-5 7-4z" fill="#050505"/>
<path transform="translate(345,929)" d="m0 0 2 1v6l-6 8-15 13-14 11-16 13-14 11-25 20-14 11-16 13-13 10-14 11-16 13-11 9-8 8h-2l-2 4-16 16-7 8-12 13-15 16-9 9-11 9-14 12-19 12-8 4-13 5-11 5-5 1-4-4-2-5h5l11-5 25-11 14-9 15-12 11-9 17-17h2l2-4 7-8h2l2-4 10-10 7-8 15-16 9-9 8-6 13-11 8-6 16-13 14-11 11-8 10-9 6-4 10-9 10-7 10-8 30-23 6-5 7-8 12-9z" fill="#4F4F50"/>
<path transform="translate(382,1159)" d="m0 0h1l1 36 18 1v12l-1 2-17 1v70l3 5 15 2 1 1v15l-5 1h-16l-8-3-7-7-2-8-1-75-1-1h-8l-3-1v-14l1-1h11l1-26 9-6z" fill="#050505"/>
<path transform="translate(929,1155)" d="m0 0h20v148h-20z" fill="#040505"/>
<path transform="translate(586,301)" d="m0 0h2v14l-3 17-6 28-6 25-7 27-8 28-5 16-3 12-4 12-7 24-4 15-6 19-3 10-4 13-6 21-3 7-3 10-10 31-13 40-6 16-3 11-9 28-3 9-3 10-7 8h-2l1-9 19-56 10-32 14-41 19-60 8-27 9-30 12-41 11-39 7-27 13-49z" fill="#676565"/>
<path transform="translate(686,1193)" d="m0 0 12 2 5 2 1 7-5 11-4-1-5-2h-8l-6 3-5 6-3 9-1 5-1 68h-18v-107l2-1h13l1 1 1 11 2 1 2-5 5-5 4-3z" fill="#050505"/>
<path transform="translate(638,30)" d="m0 0 3 3 2 11 1 13 1 43 1 192 1 93 2 84 1 72 3 69v5h-2l-1-2-2-24-2-38-1-34-1-57-2-72-1-68-1-250-1-24z" fill="#666464"/>
<path transform="translate(161,1173)" d="m0 0 2 1 10 28 11 29 3 9-3 1h-46l1-7 13-35z" fill="#FDFDFD"/>
<path transform="translate(698,854)" d="m0 0 3 3 2 8 1 26 1 51 2 17 6 27 1 6v14l-4 15-10 26-10 25-8 19-6 11-6 9-4 2-4-1 2-6 14-27 8-18 8-19 11-28 4-13v-16l-3-17-5-24-1-11-1-23z" fill="#666565"/>
<path transform="translate(415,891)" d="m0 0 1 3-8 24-7 23-3 9-10 33-11 33-5 18-4 13-3 9-5 18-7 23-5 17-6 22-9 16-5 5-5 4-6 1-5-3 5-4 7-7 9-15 4-10h2l7-20 11-36 4-12 6-20 4-13 3-8 7-25 3-7v-6l3-3 1-8 3-4v-3h2l1-7 3-12 4-12 3-8 8-23z" fill="#686666"/>
<path transform="translate(674,819)" d="m0 0 2 4 4 13 2 1v3l5 2 8 6 3 5 1 7 1 50 1 23 2 16 6 28 1 8v16l-8 24-12 29-11 25-11 22-5 9h-2l-4-11-9-39-8-38v-7h3l2 10 1 6 4 6-1 10 2 5 3 4 2 10 3 10v8l-1 1 1 9 2 6 1 5h2l2-6 12-24 5-13 3-6 6-16 4-10 7-20 2-3 1-5v-23l-3-11-2-11-2-5-2-18-1-75-7-11-9-6-5-13z" fill="#41A1DA"/>
<path transform="translate(640,220)" d="m0 0h1l1 100 1 68 2 72 1 57 1 34 3 51 1 13 3 1-5 5-2-12-2-22-1-6v-21l-1-8-1-84-1-32-1-53z" fill="#41A0D9"/>
<path transform="translate(546,456)" d="m0 0h2l-1 9-5 17-7 24-6 20-11 36-4 13-2 5-6 21-14 41-15 48-12 36-5 14-2 9-2 3h-2l1-9 19-56 10-32 14-41 19-60 8-27 9-30z" fill="#525353"/>
<path transform="translate(729,1154)" d="m0 0 7 1v24l-3 13-4 6-8 5-5-2-1-1v-5l5-3 3-5 1-10-8-1-1-1 1-20z" fill="#09090A"/>
<path transform="translate(1066,334)" d="m0 0 2 4 2 5v25l-2 7-5 12-11 19-11 16-14 21-10 13-12 12-19 14-18 13-11 8-14 10-2-1 9-8 9-6 4-4h2v-2l4-4 7-3 6-5h3v-3l10-6 3-2 4-2 7-8 6-7 8-12h2l1-4 6-10 6-8 2-4 4-4 10-16 8-16 4-14z" fill="#686666"/>
<path transform="translate(601,775)" d="m0 0h2l3 18 1 2 2 22 3 16 2 12 2 5 1 6 1 5v8l2 8v6l1 4 1 11 1 2 2 17 3 12 2 18 2 8 2 14 2 10v8l-3-2-12-68-14-90-6-44z" fill="#42A3DB"/>
<path transform="translate(345,944)" d="m0 0h1v11l-3 25h-2l-2 12-4 9v3l-2 4-2 5h-2l-2 6h-2l-2 6-2 2-2 9-3 5-2 7-3 12-2 3-2 9-2 5-2 18-1 6-2-4v-18l5-20 10-30 4-9 4-4 7-15 6-19 7-31z" fill="#41A2DA"/>
<path transform="translate(861,564)" d="m0 0 2 1-13 10-30 22-13 10-14 10-22 16-18 13-13 10-8 6-2-1 9-10 14-10 18-13 12-9 18-13 28-21 15-11 13-9z" fill="#636162"/>
<path transform="translate(698,854)" d="m0 0 3 3 2 8 1 26 1 51 2 17 3 13v6l-2-1-6-28-2-16-1-23z" fill="#696767"/>
<path transform="translate(640,1015)" d="m0 0h3l2 10 1 6 4 6-1 10 2 5 3 4 2 10 3 10v8l-1 1 1 9 2 6 1 5 3-1-2 6h-2l-4-11-9-39-8-38z" fill="#42A3DB"/>
<path transform="translate(180,1070)" d="m0 0 2 1-15 14-4 2-2 4-16 16-7 8-12 13-15 16-9 9-8 7-2-1 2-3h2l2-4h2l2-4 7-8 3-3h2l-1-3 4-3 2-3h2l2-4 7-6 5-5 5-6h2l2-4 8-8h2l2-4 5-5 11-10z" fill="#696767"/>
<path transform="translate(546,456)" d="m0 0h2l-1 9-5 17-7 24-6 20-11 36-4 13-5 10-1-3 10-32 16-53z" fill="#555556"/>
<path transform="translate(664,716)" d="m0 0 2 1-2 2v17l5 34 11 60 1 7-3-3-5-21-6-31-5-33-2-21v-8h2z" fill="#686666"/>
<path transform="translate(548,799)" d="m0 0 3 1-14 10-11 7-23 16-42 28-19 13-10 7-11 7-5 3 2-4 7-6 8-4 9-6 15-11 13-9 11-7 19-12 16-11 12-8 8-6 5-3z" fill="#696767"/>
<path transform="translate(338,943)" d="m0 0 3 1-15 13-14 11-16 13-14 11-5 4-2-1 8-8h2l1-3 9-6 1-2h2v-2l3-2 2-3 3-1v-3l5-2 4-4h2v-2l6-4 3-1v-2h2v-2l4-1 1-2z" fill="#696767"/>
<path transform="translate(656,713)" d="m0 0h3l5 43 6 37v6h-1l-5-21-1-3-4-25-2-24-5-7-2-2 4-1v-2z" fill="#419FD7"/>
<path transform="translate(585,768)" d="m0 0 2 3 1-2h4l2 2-17 12-11 7-13 9h-2l2-4 6-5-1-2 6-1 1-4h3l1-3 5-1v-2l5-3 5-5z" fill="#686666"/>
<path transform="translate(586,301)" d="m0 0h2v14l-3 17-3 15-4 2-2 2 1-10z" fill="#676565"/>
<path transform="translate(590,594)" d="m0 0h1l1 7 2 16 1 4-1 4 2 5v9l1 4-2 6v6l-3 1-2-14z" fill="#41A2DA"/>
<path transform="translate(727,663)" d="m0 0 1 2-13 9-10 8-11 8-14 10-13 9-2-1 5-5 19-14 13-10 19-14 4-1z" fill="#605F5F"/>
<path transform="translate(545,456)" d="m0 0 1 4-11 37-16 53-8 26-1-4 6-22 2-6 5-17 6-18 3-12 2-6 6-21 3-8z" fill="#41A1DA"/>
<path transform="translate(510,582)" d="m0 0 1 3-8 25-12 35-4 13-4 3 1-6 14-41 9-29h2z" fill="#555556"/>
<path transform="translate(302,1106)" d="m0 0 2 3 2 8 3 6 2 14v11l3 6 3 2-2 2h-4l-4-15-5-26z" fill="#42A2DA"/>
<path transform="translate(436,750)" d="m0 0 6 1-1 2 2 1v2h3l-2 6 2 1h-3v2l-5 2-5-6 2-3h-2l-1-4h2v-2h2z" fill="#419ED6"/>
<path transform="translate(674,819)" d="m0 0 2 4 4 13 2 1v3l5 2 8 6 3 5v7l-4-4-5-8-9-6-5-13z" fill="#42A0D7"/>
<path transform="translate(365,1028)" d="m0 0 1 4-11 37-8 27h-1l1-12 3-9 3-7 2-10 3-7 2-9z" fill="#41A1DA"/>
<path transform="translate(578,331)" d="m0 0h1l-1 10-10 37-7 27-2 7h-1l1-10 3-10 2-7 7-28v-3h2l1-7z" fill="#41A1DA"/>
<path transform="translate(727,663)" d="m0 0 1 2-13 9-10 8-4 3-4-2 17-13 7-5 4-1z" fill="#5C5B5C"/>
<path transform="translate(394,935)" d="m0 0 1 4-16 49h-1l1-10 3-6 1-7 3-7 5-17z" fill="#41A1DA"/>
<path transform="translate(583,320)" d="m0 0 1 4-2 16-3 9-3 2 1-10 4-18z" fill="#525354"/>
<path transform="translate(335,1128)" d="m0 0h2l-1 4-8 17-2 1-2 4-4 4-5 1 2-4 7-7 9-15z" fill="#525253"/>
<path transform="translate(352,1081)" d="m0 0 1 2-9 29-5 14h-1l1-8 11-35z" fill="#565656"/>
<path transform="translate(399,929)" d="m0 0 1 3-4 13-3 13-4 2 2-12 5-16h2z" fill="#525253"/>
<path transform="translate(509,576)" d="m0 0 1 3-13 41-2 3 1-9 3-8 1-5h2l1-10 2-3 3-11z" fill="#41A1DA"/>
<path transform="translate(518,550)" d="m0 0 2 3-6 22-5 10-1-3z" fill="#5B5A5B"/>
<path transform="translate(409,886)" d="m0 0h2l-1 7-5 14h-1v-6l4-11-5 2-5 5-5 1 5-5 5-4zm-18 12 2 1h-3zm-3 2 2 1z" fill="#4697C8"/>
<path transform="translate(461,731)" d="m0 0 1 3-4 15-2 3h-2l1-9 4-11z" fill="#56595C"/>
<path transform="translate(696,1040)" d="m0 0 1 4-4 8-5 12-3 6-1-4 10-24h2z" fill="#585858"/>
<path transform="translate(376,988)" d="m0 0h2l-1 7-9 29-1-4 5-19h2v-7z" fill="#41A1DA"/>
<path transform="translate(557,412)" d="m0 0h1l-1 8-9 32-1-4 4-18 4-13z" fill="#41A1DA"/>
<path transform="translate(45,1188)" d="m0 0 5 1-3 2-21 9-4-1 16-8 6-2z" fill="#696767"/>
<path transform="translate(675,814)" d="m0 0h2l4 19-1 4-3-6-3-12z" fill="#696767"/>
<path transform="translate(527,527)" d="m0 0 1 3-7 22-2 1v-7l4-10z" fill="#545455"/>
<path transform="translate(532,510)" d="m0 0 1 2-4 14-3 5-2 5-1-3 7-22z" fill="#5B5A5B"/>
<path transform="translate(426,752)" d="m0 0 1 2 2 1h-2l1 8-4 1-3-2 1-5 2-3h2z" fill="#41A1DA"/>
<path transform="translate(680,696)" d="m0 0h2l-2 4-13 9-2-1 5-5z" fill="#626161"/>
<path transform="translate(411,784)" d="m0 0 2 2-8 6-7 5-2-1 2-4 2-1v-2l3-1 1 2 3-3z" fill="#4893BF"/>
<path transform="translate(494,623)" d="m0 0 1 3-8 24h-1l1-10 2-3 3-12h2z" fill="#41A1DA"/>
<path transform="translate(273,996)" d="m0 0 2 1-9 8-9 7-2-1 7-8 4-2 6-4z" fill="#696767"/>
<path transform="translate(510,582)" d="m0 0 1 3-4 12-4 4 2-9 2-7h2z" fill="#565657"/>
<path transform="translate(389,955)" d="m0 0 1 3-1 2 3 1-3 4-1 5-4 3 2-9z" fill="#5A595A"/>
<path transform="translate(335,1128)" d="m0 0h2l-1 4-7 14-4 2 2-5 7-12z" fill="#555556"/>
<path transform="translate(399,929)" d="m0 0 1 3-3 9-4 4 2-10 1-3h2z" fill="#555556"/>
<path transform="translate(606,749)" d="m0 0 2 1-2 1zm-2 2 2 1-5 3 1-3zm-4 4 1 4-1 9h-2v-10z" fill="#4696C6"/>
<path transform="translate(352,1081)" d="m0 0 1 2-5 15-2 1 2-10 3-7z" fill="#585858"/>
<path transform="translate(636,993)" d="m0 0 3 1 1 7v6l-2-1v-5h-2z" fill="#41A2DA"/>
<path transform="translate(861,564)" d="m0 0 2 1-13 10-2-1 5-4 2-4z" fill="#656363"/>
<path transform="translate(736,654)" d="m0 0m-2 1 2 1-6 7-7 3v-3z" fill="#565657"/>
<path transform="translate(885,544)" d="m0 0 2 1-9 8-6 2 4-5z" fill="#4D4E4F"/>
<path transform="translate(956,500)" d="m0 0m-1 1m-1 1m-2 1h2l-1 3-10 7-2-1 9-8z" fill="#696767"/>
<path transform="translate(870,555)" d="m0 0 2 1-9 8-4 2v-3z" fill="#4D4E4F"/>
<path transform="translate(518,550)" d="m0 0 2 3-3 11-2 2 1-9z" fill="#585859"/>
<path transform="translate(556,420)" d="m0 0h2l-1 8-2 7h-1v-8z" fill="#575758"/>
<path transform="translate(727,663)" d="m0 0 1 2-11 8-2-1 6-7 4-1z" fill="#676565"/>
<path transform="translate(892,541)" d="m0 0 2 1-6 5-6 4-2-1 6-5 1-2z" fill="#686666"/>
<path transform="translate(542,476)" d="m0 0 1 2-3 9-3 3 2-10 1-3z" fill="#595859"/>
<path transform="translate(586,304)" d="m0 0h1v10l-1 2h-2v-7z" fill="#545455"/>
<path transform="translate(656,1091)" d="m0 0h2l3 11-3 1-2-8z" fill="#44A5DC"/>
<path transform="translate(535,500)" d="m0 0 1 3-3 7-2 1 1-7 1-3z" fill="#565657"/>
</svg>
