<?xml version="1.0" encoding="UTF-8"?>
<svg version="1.1" viewBox="0 0 2048 682" width="330" height="110" xmlns="http://www.w3.org/2000/svg">
<path transform="translate(345,7)" d="m0 0 7 1 4 5 3 6 2 8 1 11 1 158 1 87 2 44 17-12 18-13 19-13 14-10 22-15 17-12 20-14 14-10 18-14 16-13 14-11 20-16 9-1 5 6 2 8-1 18-6 17-8 13-6 9-9 10-11 10-15 11-18 13-38 28-12 9-38 28-13 10-14 10-19 14-9 9-1 2v12l5 30 3 10 5 4 5 10 1 6 1 35 3 17 2 17 1 12-5 18-12 25-5 4-4 3h-3l-4-7-7-28-11-57-10-63-3-21-14 7-42 28-31 21-7 7-7 17-14 44-9 30-5 19-8 24-4 6-1 1h-6l-3-3-5-3-4-13-3-19v-8l5-19 6-15 7-14 4-13-11 9-11 7-17 13-14 11-18 14-12 10h-2v2l-8 7-9 9-7 8-22 22-15 10-15 6-6-1-7-3-6-11-1-8 6-23 8-21 6-11 9-9 14-10 13-10 17-13 21-16 19-14 13-10 21-16 19-14 13-10 30-22 4-8 18-55 14-43 20-61 14-47 10-37 9-39 15-69 10-42 5-14zm-20 176-2 12-3 29-6 21-6 23-7 21-8 27-9 28-9 31-4 16-2 4 5-2 15-10 34-24 6-5 1-3v-19l-1-68-1-37-2-44z" fill="#010304"/>
<path transform="translate(1687,359)" d="m0 0 5 1 2 6 5 23 1 61 3 68 3 24 3 28 7 32 6 18 5 10 9 2 5 2 1 2-3 8 1 4 2 7-3 8-7 9-5 3-7 1-11-4-7-8-8-14-6-15-7-25-5-27-3-25-3-26-4-60-1-6-4 20-1 10-11 46-7 20-6 18-8 17-8 12h-2v2l-5 1-2-2-2-5-5-3-4-5-3-11v-32l3-10 1-72 1-20 3-26 2-17 2-12 6-9 7-6 7-4h6l3 6 2 17-1 38-3 23-1 8 9-31 10-30 7-18 7-14 7-9z" fill="#010507"/>
<path transform="translate(886,266)" d="m0 0 7 1 5 10 1 7-1 14-7 39-6 23-10 37-9 29-8 29v11l4-4 13-21 9-12 9-11 12-14 10-8 5-3 5-1 3 1 2 4 1 16v13l-3 13-4 16-5 23-3 27-1 17v25l4 12 6 6 9-1 11-6h5l2 10 1 7 1 1v8l-8 11-13 8-18 6h-8l-12-6-7-10-5-13-3-13-1-8v-26l2-24 7-36v-3l-12 29-9 20-1-3 3-8h-2l-2 6-11 24-20 40-6 10-8 10-9 8-4 2-5-1-3-5-6-4-3-5 1-10 6-31 10-36 17-52 13-38 18-57 14-48 11-43 4-10z" fill="#36A1D7"/>
<path transform="translate(1909,182)" d="m0 0h9l9 3 6 5 4 8 2 10v12l-3 5-4 5-6 2-9-3h-13l-11 6-3 3h-2v2l-12 12-8 12-12 19-6 10-8 16-10 21-10 25-8 22-8 27-6 21v9l6-4 7-8 10-13 13-14 14-9 5-2h9l4 4 2 12v8l-5 12-9 10-13 8-9 8-1 2h-2l-2 4-16 17-7 7-7 8-12 14-3 7-2 9-1 10v20l2 21v17l-3 9-5 9-5 4h-5l-4-6-6-5-4-9-1-4-2-35-2-1-2 4-3 3-2 3-1-1v-9l-2-1v-2l-7-1-4-10v-9l3-8 7-12 12-14 7-7 7-28 12-43 11-35 13-33 11-26 14-30 12-22 12-21 14-21 8-10 11-12 8-7 10-6zm-112 254-1 2 3-1z" fill="#02070A"/>
<path transform="translate(345,7)" d="m0 0 7 1 4 5 3 6 2 8 1 11 1 158 1 87 2 40 1 5-11 9-9 7-10 7-12 9-8 5-2-1 13-10 1-3v-19l-1-68-1-37-2-41-3 7-11 43-13 45-20 64-12 36-7 19-3 5-8 5 5-1-5 5-18 11-9 8-10 6-2-1 13-10 4-8 18-55 14-43 20-61 14-47 10-37 9-39 15-69 10-42 5-14z" fill="#36A2D7"/>
<path transform="translate(728,261)" d="m0 0h8l3 2 1 12v16l-8 72-4 45-1 15 10-7 10-9 12-11 4-4h2l2-4 7-7 7-8 10-5h12l4 3 1 6 1 7 1 8-6 8-7 7-11 9-11 10-11 9-13 11-14 11-9 8-4 8-4 28-2 19-1 19v36l-1 21-4 6-7 6-7 3h-9l-2-2v-6l-7-2-3-6v-19l3-41 1-21v-16l-3 4-4 7 2 4-1 5-6 5-15 7-9 3-12-2-8-10-3-3-1-5 6-12 11-12 13-10 17-12 17-11 2-7 6-60 7-63 4-27 5-21 5-8 9-7z" fill="#35A0D6"/>
<path transform="translate(618,378)" d="m0 0 5 1 2 3 3 16v11l-2 31-8 71-4 28-1 12v10l2 15 5 12 2 17-3 9-9 8-9 4-6-1-2-5h-2l-6-11-4-15-2-13-1-24-4 8-6 9-9 10-12 12-12 9-2 1h-6l-3-5-7-3-10-13-6-12-4-14-1-8v-32l3-28 7-46 6-32 4-8 7-6 5-2 8 1 5 6 3 13v11l-5 29-4 22-3 21v28l4 21 1 5 6-4 9-12 10-19 9-25 14-46 6-23 4-20 2-12 5-8 12-6z" fill="#35A0D6"/>
<path transform="translate(1977,360)" d="m0 0h14l5 4v5l-4 6 4 2 10 8 9 10 8 13 7 16 4 16 1 22-3 37-3 24-5 14-8 15-12 17-9 10-7 8-3 1v2l-13 10-16 8-7 2h-14l-16-8-13-12-8-13-4-11-1-4v-50l2-16 4-17 4-15 8-24 8-18 9-15 10-14 11-12 10-10 13-9zm-4 46-9 5-6 5-7 9-10 17-8 20-4 15-3 12-3 29v21l3 10 6 9 8 6 8 3 9 1 12-4 9-7 9-12 8-14 6-14 5-17 4-17 1-8v-18l-2-12-6-18-8-10-8-7-9-4z" fill="#020608"/>
<path transform="translate(1556,254)" d="m0 0 5 1 4 5 4 7-1 9-3 14v2h-2v7l-5 21-10 34-8 25-7 21-14 37-8 24-9 34-3 19-2 28 1 16 2 13-1 12-8 14-9 10-4 2h-8l-10-6-8-9-5-10-1-4v-34l6-32 12-42 16-51 19-56 13-37 13-38 7-17 9-10z" fill="#010304"/>
<path transform="translate(1049,360)" d="m0 0 9 1 2 3 1 7-2 4 14 12 10 12 9 16 6 18 2 11v35l-4 34-3 16-4 11-7 11-10 14-12 14-2 3h-2l-2 4-9 9-10 7-15 7-6 2h-12l-7-3-10-6-6-5-9-11-8-15-2-10-1-19 1-28 4-26 7-28 6-18 9-20 11-18 10-13 13-14 14-11 10-5zm-10 46-11 7-9 10-8 13-8 18-8 25-4 20-2 9-1 22v9l4 12 6 8 9 7 10 3h8l10-4 11-9 9-12 9-17 7-19 4-16 1-7v-38l-4-15-5-9-5-5-10-8-6-4z" fill="#36A2D8"/>
<path transform="translate(1401,371)" d="m0 0h12l2 3 2 12v10l-7 12-7 7-8 4h-20l-13 5-10 7-5 7 1 5 7 8 14 10 25 13 16 8 11 7 10 9 6 7 5 13 1 6v15l-2 9-5 9-9 11-10 9-13 8-27 14-24 10-21 8-8 2h-8l-5-3-2-5-6-4-2-5 4-6 9-10 8-7 13-10 21-13 10-6 5 1 1 4-3 5-10 11-1 2 16-7 14-7 11-9 6-9 1-3v-8l-5-9-5-4-10-5-21-8-19-9-15-10-10-9-5-6-7-14-2-11v-9l4-10 7-9 8-8 12-9 26-16 16-8 15-4z" fill="#36A1D7"/>
<path transform="translate(589,194)" d="m0 0h1v11l-6 17-8 13-6 9-9 10-11 10-15 11-18 13-38 28-12 9-38 28-13 10-14 10-19 14-9 9-1 2v12l5 30 3 10 5 4 5 10 1 6 1 35 3 17 2 17 1 12-5 18-12 25-5 4-4 3h-3l-4-7-7-28-11-57-10-63-3-21-14 7-42 28-31 21-7 7-7 17-14 44-9 30-5 19-8 24-4 6-1 1h-6l-3-3-5-3-4-13-3-19v-8l5-19 6-15 7-14 4-13h-2l3-15 1-3h2l1-3 16-14 7-3 17-13 2 1-5 5-14 41-17 56 8-25 12-38 8-20 6-8 8-7 8-6 11-7 15-10 13-9 11-7 11-6 9-6 5-2h4v-12l3-6 3-5 12-8 16-9h2l-1 6 2 7 6-10 11-9 16-11 17-13 9-7 17-12 12-9 13-10 17-12 19-14 18-13 17-12 11-9 7-7 7-10 11-19 7-15z" fill="#35A0D6"/>
<path transform="translate(1143,366)" d="m0 0h12l5 5 4 18v37l9-10 8-10 14-14 15-10 16-7 14-1 3 1 2 6v14l-3 6-10 6-11 6-8 7-11 13-10 16-8 16-6 14-3 8-6 10-6 18-3 14-7 28-6 23-4 11-9 10-6 5-2 1h-9l-10-10-3-4v-9l10-68 9-62 2-20 1-17v-32l6-9 9-9z" fill="#35A0D6"/>
<path transform="translate(1257,258)" d="m0 0 5 3 12 17 10 15 1 3v15l-5 14-11 23-7 9h-7l-5-5v-2l-4-2-4-5-2-6-1-14 5-26 8-29 3-8z" fill="#36A1D7"/>
<path transform="translate(1625,86)" d="m0 0h7l6 3 6 8 2 6v18l-2 14-3 10-6 8-9 8-7 4h-7l-6-5-5-8v-33l5-14 8-12 6-5z" fill="#010405"/>
<path transform="translate(1034,395)" d="m0 0 5 1 14 11 7 6h-3l-7-3-4-3h-7l-11 7-8 9-8 13-8 18-8 25-4 20-2 9-1 22v9l1 7-2-2-3-10 1-39 7-33 8-24 8-17 8-11 12-12z" fill="#000203"/>
<path transform="translate(589,194)" d="m0 0h1v11l-6 17-8 13-6 9-9 10-11 10-15 11-18 13-38 28-12 9-38 28-13 10-14 10-19 14-9 9-1 2h-2l2-6 6-8 12-9 14-10 16-12 9-7 17-12 12-9 13-10 17-12 19-14 18-13 17-12 11-9 7-7 7-10 11-19 7-15z" fill="#36A2D8"/>
<path transform="translate(1440,516)" d="m0 0 2 2v15l-6 18-10 13-7 7-15 10-32 16-26 11-20 7h-9l-4-4 10-4 15-5 28-11 18-8 17-9 14-10 13-13 7-11 3-11z"/>
<path transform="translate(1098,449)" d="m0 0h1v28l-2 19-6 27-4 11-7 13-6 8-7 9-14 17-1 2h-2l-2 4-12 10-10 6-15 4-11-1-11-3-7-4-1-3 10 3 5 1h10l16-4 14-9 13-11 12-14 12-16 10-16 5-11 5-19 3-22z"/>
<path transform="translate(183,525)" d="m0 0 4 2-4 4-11 7-17 13-14 11-18 14-12 10h-2v2l-8 7-9 9-7 8-22 22-15 10-15 6-6-1-4-2 20-6 11-7 9-7 7-8 9-10h2l2-4 23-23 13-10 14-11 19-14 8-7 10-6z" fill="#36A2D8"/>
<path transform="translate(805,383)" d="m0 0h1v8l-3 6-8 8-8 7-10 9-14 11-13 11-17 13-8 8-3 8-4 36-1 5h-1v-9l2-18 1-21 2-10 15-12 14-11 11-9 17-14 12-11 8-7z"/>
<path transform="translate(579,543)" d="m0 0 1 2-3 15-8 13-10 11-12 12-12 9-2 1h-6l-3-5-7-3-5-6 1-2 5 3 7 1 9-3 18-18 9-11 8-9 5-6h2v-2z" fill="#010406"/>
<path transform="translate(2031,435)" d="m0 0h2l2 18-1 24-4 38-2 11-5 13-9 16-10 14-9 10-7 8-3 1v2l-13 10-16 8-7 2h-14l-16-8 2-1 9 3 15 1 12-2 16-9 13-12 8-9 5-8 6-8 2-1 1-3h2l2-6 4-10 5-11 6-19 3-16 1-15z" fill="#36A2D8"/>
<path transform="translate(1938,208)" d="m0 0h1v12l-3 5-4 5-6 2-9-3h-13l-11 6-3 3h-2v2l-12 12-8 12-12 19-6 10-8 16-10 21-10 25-8 22-8 27-6 21v9 3h-3v3l-6 5 7-28 10-34 14-38 14-32 8-16 11-20 7-11 12-17 11-12 10-8 8-4h10l11 2h7l2-5 3-6 1-7z" fill="#36A2D8"/>
<path transform="translate(1560,298)" d="m0 0 2 1-1 7-5 21-3 11-12 39-8 23-14 37-8 24-9 34-3 19-2 28h-1v-30l3-19 7-28 12-38 15-43 14-43z" fill="#36A2D8"/>
<path transform="translate(322,198)" d="m0 0h1l-1 19-3 14-10 37-7 21-8 27-9 28-9 31-4 16-2 3 1 2-8 5-2-1 3-3h2l1-10 4-11 7-26 17-52 14-49 6-24 3-5 2-7z" fill="#36A2D8"/>
<path transform="translate(359,30)" d="m0 0h1l1 7 1 1 1 158v96h-1l-2-12-1-90z" fill="#134"/>
<path transform="translate(1241,390)" d="m0 0 1 2-4 7-3 3-20 10v2l-7 6-11 14-10 14-14 27-8 20-10 32-2 4 1-8 8-27 10-25 9-20 11-20 8-11 9-11 8-7 12-7z"/>
<path transform="translate(1414,382)" d="m0 0h1v10l-6 12-6 7-10 5h-18l-15 5-9 6-5 8-2 3-4-7 1-5 9-8 14-8 7-3 8 1 1 3 11-1 10-7 6-7 6-11z"/>
<path transform="translate(1659,488)" d="m0 0 2 1-4 20-9 37-8 21-4 13-8 17-8 12h-2v2l-5 1-2-2-2-6h7l6-8 8-19 9-23 8-24z" fill="#36A2D8"/>
<path transform="translate(716,518)" d="m0 0h1v57l-1 21-4 6-7 6-7 3h-9l-2-2v-6l-4-2 14-3 9-6 5-7 1-3 1-22 1-39z"/>
<path transform="translate(1039,403)" d="m0 0 6 1 4 4-3-1h-7l-11 7-8 9-8 13-8 18-8 25-4 20-2 9-1 22-1 5h-1v-25l2-20 6-27 8-22 6-11 9-13h2l2-4 14-9z" fill="#36A2D8"/>
<path transform="translate(1869,400)" d="m0 0h1v8l-5 12-9 10-13 8-9 8-1 2h-2l-2 4-16 17-7 7-7 8-12 14-3 7-2 9-1 10v27l-2-4-1-3-1-25 1-16h1l1 6 4-13 9-10 7-8 2-3h2l2-4 11-11 1-2h2l2-4 8-8 7-8 8-6 10-6 7-8 5-11z" fill="#36A2D8"/>
<path transform="translate(1972,404)" d="m0 0 7 1 2 2h-8l-9 5-5 4-7 9-10 17-8 20-4 15-3 12-3 29-1 20-2-2-1-3v-27l2 4 2-21 4-20 5-18 9-20 7-9 9-10 7-6z" fill="#36A2D8"/>
<path transform="translate(891,309)" d="m0 0h1l-1 9-6 25-17 57-3 14-4 16-11 41-3 7-3 2 2-13 7-25 14-46 15-53z"/>
<path transform="translate(850,525)" d="m0 0h1l-1 9-8 16-10 21-6 11-7 10-2 3h-2v2l-10 8-3-2-1-4 12-11 8-9 9-14 15-30z"/>
<path transform="translate(949,573)" d="m0 0h1l-1 7-4 8-5 6-10 6-14 5-11 1-9-4-2-3h12l12-3 14-6 11-9z"/>
<path transform="translate(1645,103)" d="m0 0h1v18l-2 14-3 10-6 8-9 8-7 4h-7l-6-5-2-4 10-2 9-6 7-7 6-10 4-11 2-10h1v8l-4 12-4 8-9 10-7 6-9 4v2l7 1 8-5 8-8 6-11 4-14 1-5z" fill="#36A2D8"/>
<path transform="translate(1541,263)" d="m0 0v3l-7 9-5 12-12 34-5 15-10 28-15 43-15 46-5 16-1-4 17-53 16-47 13-37 13-38 7-17z" fill="#36A2D8"/>
<path transform="translate(891,452)" d="m0 0 1 4-4 10-3 11-10 24-8 18-1-3 5-12 4-11v-5l-3 3-3 5-1-4 9-19 10-16z" fill="#030A0E"/>
<path transform="translate(673,506)" d="m0 0 1 3h-2l-2 6-4 5-17 8-6 2h-7l-4-4 10-3 20-10z"/>
<path transform="translate(1643,118)" d="m0 0h1l-1 10-4 12-7 10-9 9-6 3-7-1v-4l12-6 10-10 5-9 5-13z"/>
<path transform="translate(1324,477)" d="m0 0 5 2 23 12 29 12 13 7 7 6-1 2-9-6-11-5-19-7-16-8-13-8-5-2-3-3z" fill="#010506"/>
<path transform="translate(1146,553)" d="m0 0 1 4-6 23-4 11-5 7-10 6h-6l-3-3 1-3 14-7 7-7 5-10z"/>
<path transform="translate(1498,563)" d="m0 0h1l1 8-1 12-8 14-9 10-4 2h-8l-7-4 3-1 8 1 7-4 9-14 7-15v-3l-2 1 2-6z" fill="#36A2D8"/>
<path transform="translate(1876,235)" d="m0 0v3l-13 19-12 21-12 23-16 36-11 30-2 5-1-3 9-25 11-27 12-26 10-19 11-18 12-17z" fill="#36A2D8"/>
<path transform="translate(715,547)" d="m0 0h1l1 28-1 21-4 6-7 6-7 3h-9l-2-2v-6l-2-1 6 1v5l7-1 6-3h2l2-5 4-9 2-12z" fill="#36A2D8"/>
<path transform="translate(924,432)" d="m0 0h1l-1 9-6 30-3 22-1 18v37l-2-2-1-4v-27l2-25 5-35z"/>
<path transform="translate(617,598)" d="m0 0 2 1-1 5-4 8-6 6-10 2-5-2 3-3 16-10z"/>
<path transform="translate(1738,640)" d="m0 0 2 8 2 7-3 8-7 9-5 3-7 1-9-3v-1h9l8-2 2-4 3-1 2-4 2-6 1-7h-2l1-5z" fill="#36A2D8"/>
<path transform="translate(1782,565)" d="m0 0h1v17l-3 9-5 9-5 4h-5l-3-6 8-1 7-11 4-14z" fill="#36A2D8"/>
<path transform="translate(1275,325)" d="m0 0 1 2-10 21-6 7-6-1-3-3-3-1v-2l6 1 7-2 4-8 3-5z" fill="#000202"/>
<path transform="translate(327,174)" d="m0 0h1l1 16v57h-1l-2-40v-32z" fill="#02070A"/>
<path transform="translate(679,486)" d="m0 0h3v7l-3 4-2 7-2 1-1-7-6-2 2-5z" fill="#010304"/>
<path transform="translate(2017,527)" d="m0 0 1 2-7 14-14 19-11 12-10 10-2-1 16-16 13-17 9-14z" fill="#36A2D8"/>
<path transform="translate(1566,264)" d="m0 0 3 3-1 9-3 14v2h-2v7l-2-1v-5l-1-4 5-19z" fill="#17465E"/>
<path transform="translate(390,467)" d="m0 0 2 3 1 35 1 12-3-4-1-4z" fill="#0C2532"/>
<path transform="translate(988,490)" d="m0 0h1l-1 20v25l2 11-2-2-3-10 1-39z" fill="#010506"/>
<path transform="translate(716,518)" d="m0 0h1v21l-2 21h-1v-39z" fill="#091B24"/>
<path transform="translate(60,550)" d="m0 0 2 1-12 10-11 9-6 7-4 6-1-2 6-10 8-8 14-10z" fill="#3091C1"/>
<path transform="translate(566,571)" d="m0 0 2 1-3 6-10 9-7 8h-3l8-9 6-8 5-6z" fill="#35A0D5"/>
<path transform="translate(1599,549)" d="m0 0h1l-1 41-2-4v-32z" fill="#36A2D8"/>
<path transform="translate(532,596)" d="m0 0 2 1-2 5-1 2 9-5 3-3 2 1-7 6-5 3h-6l-3-5-2-2 8-2z" fill="#36A2D8"/>
<path transform="translate(618,480)" d="m0 0 1 4-5 41h-1l-1-10 5-32z"/>
<path transform="translate(1963,368)" d="m0 0 2 1-15 14-11 12-6 8v-3l10-13 16-16z" fill="#36A2D8"/>
<path transform="translate(1927,554)" d="m0 0 15 10 12 3h7l-3 2h-9l-11-4-8-6-3-3z" fill="#359FD4"/>
<path transform="translate(2e3 382)" d="m0 0 4 2 7 7 10 15 1 7-3-4-6-11-8-10z" fill="#3195C6"/>
<path transform="translate(1894,536)" d="m0 0h1l2 31 2 10-2-2-4-13z" fill="#349CD0"/>
<path transform="translate(529,494)" d="m0 0h1v28l-2-2-1-16z"/>
<path transform="translate(1898,487)" d="m0 0h1l-3 33h-1l-1-18 3-13z" fill="#36A2D8"/>
<path transform="translate(1566,264)" d="m0 0 3 3v5l-2 2-6 18-1-3 5-19z" fill="#36A2D8"/>
<path transform="translate(194,606)" d="m0 0h1l-1 8-6 9-5 1 6-8z"/>
<path transform="translate(2e3 422)" d="m0 0 4 5 4 11 1 7h-2l-6-18-2-4z" fill="#2D88B5"/>
<path transform="translate(1840,392)" d="m0 0 2 1-20 20v-3l14-15z" fill="#297BA4"/>
<path transform="translate(1282,305)" d="m0 0 1 4-3 10-3 4 1-9z"/>
<path transform="translate(208,488)" d="m0 0 2 1-5 5-6 5-2-1 8-8z" fill="#36A2D8"/>
<path transform="translate(1722,664)" d="m0 0 2 1-7 4-7-1-2-3 10 1z" fill="#36A2D8"/>
<path transform="translate(1640,549)" d="m0 0 1 2-5 13h-2l3-9z"/>
<path transform="translate(1924,483)" d="m0 0h1l-1 14-2 2v-11z"/>
<path transform="translate(1556,254)" d="m0 0 5 1 2 3h-12l3-3z" fill="#216384"/>
<path transform="translate(865,519)" d="m0 0" fill="#36A2D8"/>
<path transform="translate(864,522)" d="m0 0" fill="#36A2D8"/>
</svg>
